HIERARCHY
ROOT Hips
{
	OFFSET 0.000000 0.000000 0.000000
	CHANNELS 6 Xposition Yposition Zposition Zrotation Yrotation Xrotation 
	JOINT LowerBack
	{
		OFFSET 0.000000 0.000000 0.000000
		CHANNELS 3 Zrotation Yrotation Xrotation
		JOINT Spine
		{
			OFFSET 0.028270 2.035590 -0.193380
			CHANNELS 3 Zrotation Yrotation Xrotation
			JOINT Spine1
			{
				OFFSET 0.056720 2.048850 -0.042750
				CHANNELS 3 Zrotation Yrotation Xrotation
				JOINT Neck
				{
					OFFSET 0.000000 0.000000 0.000000
					CHANNELS 3 Zrotation Yrotation Xrotation
					JOINT Neck1
					{
						OFFSET -0.054170 1.746240 0.172020
						CHANNELS 3 Zrotation Yrotation Xrotation
						JOINT Head
						{
							OFFSET 0.104070 1.761360 -0.123970
							CHANNELS 3 Zrotation Yrotation Xrotation
							End Site
							{
								OFFSET 0.000000 0.000000 0.000000
							}
						}
					}
				}
				JOINT LeftShoulder
				{
					OFFSET 0.000000 0.000000 0.000000
					CHANNELS 3 Zrotation Yrotation Xrotation
					JOINT LeftArm
					{
						OFFSET 3.362410 1.200890 -0.311210
						CHANNELS 3 Zrotation Yrotation Xrotation
						JOINT LeftForeArm
						{
							OFFSET 4.983000 -0.000000 -0.000000
							CHANNELS 3 Zrotation Yrotation Xrotation
							JOINT LeftHand
							{
								OFFSET 3.483560 -0.000000 -0.000000
								CHANNELS 3 Zrotation Yrotation Xrotation
								JOINT LeftFingerBase
								{
									OFFSET 0.000000 0.000000 0.000000
									CHANNELS 3 Zrotation Yrotation Xrotation
									JOINT LeftHandIndex1
									{
										OFFSET 0.715260 -0.000000 -0.000000
										CHANNELS 3 Zrotation Yrotation Xrotation
										End Site
										{
											OFFSET 0.000000 0.000000 0.000000
										}
									}
								}
								JOINT LThumb
								{
									OFFSET 0.000000 0.000000 0.000000
									CHANNELS 3 Zrotation Yrotation Xrotation
									End Site
									{
										OFFSET 0.000000 0.000000 0.000000
									}
								}
							}
						}
					}
				}
				JOINT RightShoulder
				{
					OFFSET 0.000000 0.000000 0.000000
					CHANNELS 3 Zrotation Yrotation Xrotation
					JOINT RightArm
					{
						OFFSET -3.136600 1.374050 -0.404650
						CHANNELS 3 Zrotation Yrotation Xrotation
						JOINT RightForeArm
						{
							OFFSET -5.241900 -0.000000 -0.000000
							CHANNELS 3 Zrotation Yrotation Xrotation
							JOINT RightHand
							{
								OFFSET -3.444170 -0.000000 -0.000000
								CHANNELS 3 Zrotation Yrotation Xrotation
								JOINT RightFingerBase
								{
									OFFSET 0.000000 0.000000 0.000000
									CHANNELS 3 Zrotation Yrotation Xrotation
									JOINT RightHandIndex1
									{
										OFFSET -0.622530 -0.000000 -0.000000
										CHANNELS 3 Zrotation Yrotation Xrotation
										End Site
										{
											OFFSET 0.000000 0.000000 0.000000
										}
									}
								}
								JOINT RThumb
								{
									OFFSET 0.000000 0.000000 0.000000
									CHANNELS 3 Zrotation Yrotation Xrotation
									End Site
									{
										OFFSET 0.000000 0.000000 0.000000
									}
								}
							}
						}
					}
				}
			}
		}
	}
}
}
MOTION
Frames: 6
Frame Time: 0.008333
7.809471 19.341027 0.656221 36.649919 -84.744229 -9.504321 -1.221411 -2.343904 -4.097198 -0.760113 -2.410160 -3.137018 -5.363712 -2.513479 2.958421 8.634279 -12.372282 -10.484643 -2.123042 -0.120538 -0.808992 0.000000 0.000000 0.000000 1.808796 11.487656 2.202504 -59.865196 4.648064 -16.469696 -2.898285 -36.340490 -0.030612 9.800603 5.566271 0.479715 -0.183559 0.082739 -0.000000 0.000000 0.000000 0.000000 0.000000 0.000000 0.000000 9.851840 -10.290930 1.623277 61.861115 0.389174 -33.352979 1.836178 28.752369 -0.024566 -17.107395 9.683952 -1.505562 0.188823 -0.197278 0.000000 0.000000 0.000000 0.000000 0.000000 0.000000 0.000000 
7.683548 19.582755 0.648385 37.178815 -84.983765 -9.972776 -1.258855 -2.327005 -4.548160 -0.755309 -2.399201 -3.190695 -5.319048 -2.503627 3.079520 8.637327 -12.596316 -10.426053 -2.060069 -0.117131 -0.781667 0.000000 0.000000 0.000000 2.059916 11.751774 2.170519 -58.942854 5.103560 -17.442296 -2.929991 -36.527173 -0.031337 9.542639 5.686293 0.477731 -0.189087 0.083922 -0.000000 0.000000 0.000000 0.000000 0.000000 0.000000 0.000000 9.680948 -10.522743 1.572311 60.843839 0.455626 -34.236844 1.831486 29.148309 -0.025265 -17.039709 9.630451 -1.492154 0.191260 -0.201299 0.000000 0.000000 0.000000 0.000000 0.000000 0.000000 0.000000 
7.563793 19.810472 0.640240 37.896770 -85.191410 -10.554860 -1.298426 -2.315108 -4.969946 -0.750017 -2.391947 -3.242571 -5.266562 -2.498167 3.183962 8.619990 -12.796111 -10.387971 -1.991558 -0.112772 -0.762284 0.000000 0.000000 0.000000 2.315988 11.979090 2.155565 -57.983664 5.501713 -18.466021 -2.940076 -36.744098 -0.032539 9.525145 5.741790 0.481645 -0.195156 0.086755 -0.000000 0.000000 0.000000 0.000000 0.000000 0.000000 0.000000 9.461299 -10.724831 1.539101 59.866864 0.520745 -35.148263 1.808776 29.674851 -0.026419 -16.996488 9.580041 -1.481747 0.193489 -0.206533 0.000000 0.000000 0.000000 0.000000 0.000000 0.000000 0.000000 
7.450593 20.024410 0.632012 38.724327 -85.360645 -11.205807 -1.337439 -2.307387 -5.327241 -0.744458 -2.387077 -3.286837 -5.208314 -2.495424 3.269434 8.584172 -12.966864 -10.366479 -1.919477 -0.107652 -0.749845 0.000000 0.000000 0.000000 2.573153 12.167664 2.156209 -56.986183 5.833826 -19.526261 -2.927675 -36.992056 -0.034236 9.756363 5.727968 0.491856 -0.201818 0.091241 -0.000000 0.000000 0.000000 0.000000 0.000000 0.000000 0.000000 9.201501 -10.893496 1.521761 58.923401 0.559040 -36.033882 1.768342 30.349895 -0.028044 -17.005247 9.528167 -1.475742 0.195697 -0.212745 0.000000 0.000000 0.000000 0.000000 0.000000 0.000000 0.000000 
7.344191 20.224699 0.623702 39.640317 -85.486640 -11.933503 -1.378028 -2.304030 -5.592053 -0.739588 -2.384131 -3.317722 -5.145723 -2.494565 3.338277 8.532730 -13.111862 -10.361082 -1.844760 -0.101829 -0.744306 0.000000 0.000000 0.000000 2.825928 12.333694 2.170094 -55.948702 6.072363 -20.611751 -2.893748 -37.260945 -0.036455 10.226049 5.640059 0.506964 -0.209114 0.097414 -0.000000 0.000000 0.000000 0.000000 0.000000 0.000000 0.000000 8.910325 -11.034210 1.517011 58.013089 0.569541 -36.889559 1.710841 31.177091 -0.030124 -17.060596 9.474097 -1.473538 0.197877 -0.219866 0.000000 0.000000 0.000000 0.000000 0.000000 0.000000 0.000000 
7.244562 20.412330 0.615545 40.570450 -85.569419 -12.683714 -1.417538 -2.304132 -5.748234 -0.735635 -2.382291 -3.331544 -5.081671 -2.494442 3.392783 8.471685 -13.234674 -10.371775 -1.769788 -0.095496 -0.745668 0.000000 0.000000 0.000000 3.067041 12.492910 2.194414 -54.869085 6.197714 -21.710028 -2.839772 -37.548412 -0.039234 10.916111 5.478277 0.524469 -0.217032 0.105198 -0.000000 0.000000 0.000000 0.000000 0.000000 0.000000 0.000000 8.605455 -11.151879 1.521346 57.123604 0.547446 -37.696146 1.638163 32.156534 -0.032632 -17.168859 9.417419 -1.475637 0.200109 -0.227711 0.000000 0.000000 0.000000 0.000000 0.000000 0.000000 0.000000 
